<svg width="175" height="175" viewBox="0 0 175 175" fill="none" xmlns="http://www.w3.org/2000/svg">
<path d="M103.009 12.021L104.513 12.3773L105.38 14.3345L105.607 14.8554L106.895 17.7997L105.391 17.4435L104.546 15.4915L104.335 14.9979L103.009 12.021ZM108.952 11.1867C108.669 12.381 108.209 13.3619 107.572 14.1296C106.934 14.8973 106.184 15.428 105.32 15.7217C104.456 16.0153 103.542 16.0478 102.576 15.819C101.61 15.5903 100.807 15.1509 100.167 14.501C99.5272 13.8511 99.0945 13.0401 98.8693 12.0681C98.6441 11.0961 98.673 10.0129 98.9559 8.81872C99.2388 7.6245 99.6989 6.64353 100.336 5.87583C100.974 5.10812 101.724 4.57744 102.588 4.28377C103.451 3.99011 104.366 3.95766 105.332 4.18642C106.297 4.41519 107.1 4.85453 107.741 5.50445C108.381 6.15437 108.813 6.96534 109.039 7.93736C109.264 8.90939 109.235 9.99251 108.952 11.1867ZM107.625 10.8724C107.857 9.89195 107.889 9.02562 107.721 8.27339C107.556 7.52204 107.237 6.90721 106.762 6.42889C106.292 5.95144 105.713 5.63151 105.028 5.46911C104.342 5.3067 103.68 5.33281 103.042 5.54743C102.407 5.76293 101.845 6.16908 101.357 6.76588C100.873 7.36356 100.515 8.15261 100.283 9.13305C100.051 10.1135 100.017 10.9794 100.181 11.7307C100.35 12.483 100.669 13.0978 101.14 13.5752C101.614 14.0536 102.194 14.3739 102.88 14.5363C103.566 14.6987 104.226 14.6722 104.861 14.4567C105.499 14.2421 106.061 13.8359 106.545 13.2383C107.033 12.6415 107.393 11.8528 107.625 10.8724Z" fill="white"/>
<path d="M119.493 17.6024L121.64 12.9114L122.859 13.4695L119.227 21.405L118.008 20.8469L118.623 19.5036L118.54 19.4658C118.169 19.7836 117.723 19.9939 117.201 20.0966C116.681 20.1958 116.121 20.1083 115.522 19.834C115.026 19.6069 114.635 19.2967 114.348 18.9031C114.063 18.5061 113.912 18.0367 113.893 17.495C113.876 16.9497 114.022 16.3396 114.331 15.6646L116.639 10.6223L117.858 11.1804L115.588 16.14C115.323 16.7186 115.274 17.2542 115.44 17.7469C115.609 18.2411 115.947 18.604 116.454 18.8358C116.757 18.9745 117.101 19.0381 117.485 19.0266C117.873 19.0167 118.247 18.9004 118.607 18.6779C118.97 18.4569 119.266 18.0984 119.493 17.6024Z" fill="white"/>
<path d="M124.438 24.2071L129.118 16.841L130.25 17.5601L125.57 24.9262L124.438 24.2071ZM130.474 15.9789C130.253 15.8388 130.111 15.6428 130.046 15.3909C129.985 15.1411 130.022 14.9107 130.156 14.6997C130.29 14.4887 130.483 14.3578 130.735 14.3071C130.99 14.2584 131.228 14.3041 131.449 14.4443C131.67 14.5845 131.81 14.7795 131.872 15.0293C131.936 15.2811 131.901 15.5125 131.767 15.7235C131.633 15.9345 131.438 16.0644 131.183 16.1131C130.931 16.1638 130.694 16.1191 130.474 15.9789Z" fill="white"/>
<path d="M133.082 30.4824C132.456 29.9555 132.042 29.354 131.838 28.6778C131.635 28.0017 131.63 27.3019 131.823 26.5782C132.016 25.8546 132.394 25.1595 132.955 24.493C133.525 23.8149 134.154 23.3214 134.84 23.0124C135.531 22.703 136.224 22.591 136.92 22.6764C137.621 22.7614 138.272 23.0575 138.875 23.5649C139.345 23.9601 139.694 24.4031 139.925 24.8941C140.155 25.3851 140.259 25.8883 140.236 26.4038C140.213 26.9192 140.055 27.41 139.762 27.876L138.736 27.0125C138.914 26.6424 138.967 26.2265 138.895 25.7649C138.828 25.3029 138.569 24.8816 138.117 24.5011C137.717 24.1645 137.278 23.9736 136.801 23.9286C136.33 23.8831 135.851 23.978 135.366 24.2132C134.886 24.448 134.434 24.8175 134.01 25.3218C133.576 25.8376 133.279 26.3551 133.119 26.8742C132.962 27.3957 132.944 27.8879 133.064 28.3507C133.188 28.8159 133.452 29.2193 133.858 29.5608C134.124 29.7852 134.405 29.9425 134.701 30.0328C134.996 30.123 135.292 30.1446 135.589 30.0975C135.887 30.0505 136.169 29.9321 136.438 29.7424L137.464 30.6059C137.074 30.9512 136.632 31.1854 136.137 31.3086C135.648 31.4313 135.138 31.4281 134.608 31.2989C134.083 31.1692 133.575 30.897 133.082 30.4824Z" fill="white"/>
<path d="M143.117 35.1907L144.368 34.1001L144.544 34.3081L149.978 34.7058L151.051 35.971L145.282 35.5297L145.209 35.443L143.117 35.1907ZM139.882 36.2958L148.756 28.7684L149.623 29.7909L140.75 37.3183L139.882 36.2958ZM143.47 40.5247L144.557 35.1316L145.885 35.2567L144.572 41.8245L143.47 40.5247Z" fill="white"/>
<path d="M162.599 48.2116L155.032 55.3269L155.087 55.4517L165.444 54.6573L166.04 56.0088L153.669 56.798L153.082 55.4672L162.003 46.8601L162.599 48.2116Z" fill="white"/>
<path d="M157.037 65.586L165.454 63.2802L165.808 64.5734L157.391 66.8793L157.037 65.586ZM167.037 63.5534C166.968 63.3014 166.994 63.0605 167.116 62.8308C167.238 62.6047 167.42 62.4587 167.661 62.3926C167.902 62.3266 168.133 62.3595 168.354 62.4915C168.576 62.6271 168.721 62.821 168.79 63.073C168.859 63.3251 168.833 63.5642 168.71 63.7902C168.588 64.0199 168.407 64.1678 168.166 64.2339C167.925 64.2999 167.693 64.2651 167.471 64.1295C167.251 63.9975 167.106 63.8055 167.037 63.5534Z" fill="white"/>
<path d="M159.223 76.1379C159.111 75.3045 159.199 74.5609 159.485 73.907C159.776 73.2564 160.232 72.7232 160.853 72.3073C161.477 71.8946 162.233 71.6288 163.119 71.5097C164.005 71.3907 164.807 71.4472 165.526 71.6793C166.25 71.9146 166.84 72.2977 167.298 72.8286C167.759 73.3628 168.042 74.0204 168.147 74.8012C168.208 75.2517 168.193 75.7067 168.101 76.1661C168.01 76.6255 167.82 77.0581 167.531 77.4639C167.245 77.8692 166.84 78.2159 166.317 78.504C165.794 78.7922 165.129 78.9905 164.322 79.0989L163.759 79.1746L162.863 72.5072L164.012 72.3529L164.726 77.6687C165.214 77.6032 165.636 77.447 165.993 77.2004C166.35 76.9575 166.616 76.6428 166.789 76.2564C166.963 75.8738 167.018 75.4422 166.954 74.9616C166.882 74.4323 166.689 73.9919 166.375 73.6406C166.064 73.2925 165.687 73.0432 165.242 72.8927C164.798 72.7422 164.337 72.699 163.86 72.763L163.095 72.8659C162.441 72.9537 161.903 73.1407 161.479 73.427C161.059 73.7166 160.758 74.0799 160.576 74.5172C160.398 74.9539 160.345 75.4407 160.417 75.9775C160.464 76.3266 160.555 76.6354 160.69 76.9039C160.83 77.1756 161.013 77.4013 161.24 77.581C161.471 77.7603 161.744 77.886 162.059 77.9583L161.871 79.2906C161.417 79.214 161.004 79.0383 160.631 78.7636C160.261 78.4884 159.953 78.1285 159.706 77.684C159.463 77.2389 159.302 76.7236 159.223 76.1379Z" fill="white"/>
<path d="M160.368 86.9882L169.248 84.897L169.157 86.3031L162.368 87.7551L162.362 87.8458L168.91 90.1361L168.817 91.5649L162.054 92.9729L162.048 93.0637L168.571 95.3752L168.481 96.7813L159.943 93.5655L160.028 92.25L166.841 90.7769L166.85 90.6408L160.283 88.3037L160.368 86.9882Z" fill="white"/>
<path d="M157.005 109.123L167.824 113.408L166.376 117.064C166.04 117.912 165.612 118.545 165.092 118.963C164.574 119.385 164.005 119.624 163.384 119.68C162.763 119.735 162.134 119.637 161.497 119.385C160.859 119.132 160.331 118.772 159.913 118.305C159.494 117.842 159.236 117.279 159.14 116.618C159.047 115.958 159.167 115.207 159.5 114.365L160.538 111.745L161.7 112.205L160.679 114.783C160.449 115.364 160.364 115.87 160.426 116.302C160.487 116.734 160.657 117.096 160.936 117.39C161.217 117.689 161.574 117.924 162.007 118.096C162.44 118.267 162.86 118.34 163.265 118.313C163.67 118.29 164.039 118.139 164.374 117.86C164.712 117.582 164.997 117.149 165.23 116.561L166.143 114.258L156.486 110.433L157.005 109.123Z" fill="white"/>
<path d="M149.789 124.335C150.207 123.667 150.733 123.181 151.366 122.876C151.997 122.574 152.687 122.46 153.436 122.535C154.182 122.614 154.937 122.892 155.702 123.37C156.472 123.852 157.057 124.413 157.457 125.052C157.855 125.694 158.056 126.365 158.061 127.065C158.063 127.768 157.856 128.454 157.438 129.122C157.02 129.79 156.495 130.274 155.864 130.576C155.23 130.882 154.539 130.994 153.789 130.914C153.038 130.837 152.276 130.557 151.506 130.075C150.742 129.596 150.162 129.037 149.767 128.397C149.371 127.76 149.171 127.09 149.169 126.387C149.164 125.687 149.371 125.003 149.789 124.335ZM150.81 124.974C150.493 125.482 150.361 125.98 150.417 126.471C150.472 126.961 150.662 127.417 150.987 127.84C151.313 128.263 151.723 128.629 152.217 128.938C152.712 129.247 153.222 129.457 153.747 129.567C154.273 129.677 154.77 129.651 155.238 129.488C155.706 129.325 156.099 128.99 156.416 128.483C156.734 127.975 156.864 127.476 156.805 126.983C156.747 126.491 156.553 126.033 156.225 125.608C155.896 125.183 155.485 124.816 154.99 124.507C154.496 124.197 153.987 123.989 153.465 123.881C152.943 123.773 152.449 123.801 151.984 123.966C151.519 124.131 151.128 124.467 150.81 124.974Z" fill="white"/>
<path d="M144.685 132.191L151.287 137.899L150.44 138.879L149.442 138.017L149.383 138.085C149.606 138.488 149.682 138.935 149.613 139.426C149.544 139.917 149.339 140.361 148.997 140.756C148.932 140.831 148.85 140.922 148.751 141.032C148.651 141.141 148.574 141.222 148.519 141.274L147.487 140.382C147.526 140.355 147.607 140.288 147.73 140.179C147.854 140.076 147.975 139.957 148.091 139.823C148.369 139.502 148.549 139.157 148.632 138.789C148.716 138.425 148.704 138.069 148.595 137.72C148.487 137.376 148.284 137.075 147.986 136.817L143.808 133.205L144.685 132.191Z" fill="white"/>
<path d="M141.364 148.272L140.599 147.431L143.945 144.389L144.71 145.229L141.364 148.272ZM145.141 147.663L144.149 148.565L138.553 142.411C138.298 142.131 138.066 141.957 137.858 141.891C137.649 141.83 137.458 141.835 137.286 141.904C137.114 141.979 136.954 142.083 136.809 142.215C136.699 142.315 136.615 142.402 136.555 142.477C136.498 142.555 136.452 142.617 136.417 142.663L135.405 141.956C135.45 141.869 135.52 141.759 135.618 141.624C135.713 141.486 135.853 141.333 136.038 141.165C136.318 140.91 136.648 140.721 137.026 140.597C137.402 140.475 137.79 140.457 138.191 140.544C138.589 140.632 138.959 140.864 139.301 141.24L145.141 147.663Z" fill="white"/>
<path d="M134.16 153.96L133.496 153.038L137.316 150.291L137.979 151.214L134.16 153.96ZM131.74 144.951L137.538 153.014C137.83 153.42 137.978 153.827 137.982 154.235C137.986 154.643 137.885 155.024 137.677 155.378C137.47 155.732 137.197 156.031 136.859 156.274C136.592 156.467 136.358 156.602 136.158 156.681C135.958 156.759 135.803 156.81 135.693 156.833L135.33 155.666C135.399 155.645 135.492 155.612 135.611 155.569C135.726 155.528 135.862 155.452 136.019 155.339C136.379 155.08 136.573 154.803 136.603 154.506C136.629 154.212 136.516 153.889 136.264 153.539L130.652 145.734L131.74 144.951Z" fill="white"/>
<path d="M121.829 151.147C122.53 150.787 123.23 150.638 123.931 150.699C124.628 150.762 125.279 151.017 125.884 151.464C126.485 151.913 126.992 152.538 127.404 153.34C127.82 154.149 128.037 154.93 128.054 155.683C128.067 156.439 127.897 157.118 127.543 157.722C127.186 158.328 126.657 158.81 125.957 159.171C125.256 159.531 124.557 159.68 123.86 159.617C123.16 159.555 122.508 159.298 121.905 158.846C121.298 158.396 120.787 157.766 120.371 156.958C119.959 156.156 119.747 155.379 119.735 154.627C119.719 153.877 119.89 153.199 120.247 152.594C120.601 151.99 121.129 151.508 121.829 151.147ZM122.38 152.219C121.848 152.492 121.48 152.854 121.277 153.304C121.074 153.753 121.004 154.243 121.068 154.772C121.131 155.302 121.297 155.826 121.564 156.345C121.83 156.863 122.162 157.304 122.557 157.667C122.953 158.03 123.393 158.262 123.879 158.361C124.364 158.461 124.873 158.373 125.406 158.1C125.938 157.826 126.305 157.463 126.506 157.01C126.708 156.557 126.776 156.064 126.71 155.531C126.645 154.998 126.479 154.472 126.212 153.954C125.945 153.435 125.615 152.996 125.221 152.636C124.827 152.276 124.388 152.048 123.904 151.952C123.421 151.856 122.913 151.945 122.38 152.219Z" fill="white"/>
<path d="M116.033 166.654L112.184 155.673L113.449 155.23L117.298 166.211L116.033 166.654Z" fill="white"/>
<path d="M106.712 157.452L108.779 165.931L107.476 166.249L105.409 157.77L106.712 157.452ZM108.461 167.506C108.715 167.444 108.955 167.477 109.182 167.605C109.404 167.734 109.545 167.92 109.604 168.163C109.663 168.406 109.624 168.636 109.486 168.853C109.344 169.07 109.146 169.21 108.892 169.272C108.638 169.334 108.4 169.301 108.177 169.172C107.951 169.043 107.809 168.858 107.749 168.615C107.69 168.372 107.731 168.142 107.873 167.924C108.011 167.707 108.207 167.568 108.461 167.506Z" fill="white"/>
<path d="M96.2288 159.333C97.0125 159.253 97.7193 159.369 98.3491 159.681C98.9752 159.994 99.4883 160.469 99.8886 161.106C100.285 161.743 100.529 162.51 100.621 163.407C100.714 164.311 100.63 165.117 100.372 165.826C100.109 166.534 99.7031 167.105 99.1534 167.538C98.6 167.972 97.9314 168.229 97.1476 168.309C96.3638 168.389 95.6589 168.273 95.0329 167.96C94.4031 167.647 93.8898 167.171 93.4929 166.53C93.0922 165.889 92.8456 165.117 92.753 164.212C92.6612 163.316 92.7468 162.515 93.0097 161.81C93.2689 161.106 93.6752 160.537 94.2286 160.103C94.7783 159.67 95.445 159.413 96.2288 159.333ZM96.3514 160.531C95.7561 160.592 95.2818 160.795 94.9287 161.14C94.5756 161.484 94.3322 161.915 94.1985 162.431C94.0647 162.947 94.0276 163.495 94.087 164.076C94.1464 164.656 94.2941 165.187 94.53 165.67C94.7659 166.152 95.0919 166.528 95.5079 166.798C95.9239 167.067 96.4296 167.172 97.0249 167.111C97.6203 167.05 98.0944 166.845 98.4471 166.497C98.7998 166.148 99.0428 165.714 99.1762 165.194C99.3095 164.674 99.3465 164.124 99.2871 163.543C99.2277 162.963 99.0802 162.434 98.8446 161.955C98.6091 161.477 98.2835 161.105 97.8679 160.839C97.4523 160.573 96.9468 160.47 96.3514 160.531Z" fill="white"/>
<path d="M73.9335 162.568L72.4185 162.263L71.4853 160.336L71.241 159.823L69.8546 156.923L71.3696 157.229L72.2805 159.151L72.5071 159.637L73.9335 162.568ZM68.0217 163.602C68.2642 162.399 68.691 161.403 69.302 160.614C69.9131 159.826 70.6453 159.27 71.4986 158.947C72.3518 158.625 73.2649 158.561 74.2378 158.757C75.2106 158.954 76.0279 159.366 76.6896 159.993C77.3513 160.621 77.8111 161.417 78.0689 162.381C78.3267 163.345 78.3344 164.429 78.0919 165.632C77.8495 166.835 77.4227 167.831 76.8116 168.619C76.2005 169.408 75.4684 169.964 74.6151 170.287C73.7618 170.609 72.8487 170.672 71.8759 170.476C70.903 170.28 70.0857 169.868 69.424 169.24C68.7623 168.612 68.3025 167.816 68.0447 166.852C67.7869 165.889 67.7792 164.805 68.0217 163.602ZM69.3585 163.871C69.1594 164.859 69.1566 165.726 69.3501 166.472C69.5399 167.218 69.88 167.821 70.3704 168.283C70.857 168.745 71.4456 169.045 72.1363 169.184C72.827 169.323 73.4878 169.275 74.1188 169.039C74.7462 168.802 75.2936 168.377 75.761 167.764C76.2247 167.151 76.5561 166.35 76.7552 165.362C76.9542 164.375 76.9589 163.508 76.7691 162.763C76.5756 162.017 76.2355 161.413 75.7488 160.951C75.2585 160.489 74.668 160.189 73.9773 160.05C73.2867 159.91 72.6277 159.959 72.0004 160.196C71.3693 160.432 70.8219 160.857 70.3582 161.471C69.8908 162.083 69.5575 162.884 69.3585 163.871Z" fill="white"/>
<path d="M57.2591 157.541L55.2704 162.302L54.0331 161.785L57.3973 153.732L58.6345 154.249L58.0651 155.612L58.149 155.647C58.5086 155.317 58.9474 155.092 59.4656 154.972C59.9823 154.855 60.5448 154.924 61.1529 155.178C61.6562 155.388 62.0576 155.685 62.3571 156.069C62.6551 156.456 62.8225 156.92 62.8593 157.461C62.8946 158.005 62.7692 158.62 62.483 159.305L60.3454 164.422L59.1081 163.905L61.2107 158.872C61.456 158.285 61.4874 157.748 61.3048 157.261C61.1188 156.773 60.7689 156.421 60.2551 156.207C59.9475 156.078 59.6019 156.026 59.2181 156.051C58.8308 156.074 58.461 156.202 58.1085 156.437C57.7525 156.67 57.4694 157.038 57.2591 157.541Z" fill="white"/>
<path d="M52.0814 151.098L47.6479 158.615L46.4929 157.934L50.9264 150.417L52.0814 151.098ZM46.3216 159.522C46.5468 159.655 46.6957 159.846 46.7684 160.095C46.8378 160.343 46.809 160.575 46.682 160.79C46.555 161.005 46.3664 161.142 46.116 161.201C45.8625 161.259 45.6231 161.221 45.398 161.088C45.1729 160.955 45.0256 160.765 44.9562 160.517C44.8835 160.268 44.9106 160.035 45.0376 159.82C45.1646 159.605 45.3549 159.468 45.6085 159.411C45.8588 159.352 46.0965 159.389 46.3216 159.522Z" fill="white"/>
<path d="M43.2395 145.116C43.8825 145.622 44.3168 146.21 44.5423 146.879C44.7678 147.548 44.796 148.247 44.6268 148.977C44.4577 149.706 44.1038 150.414 43.5651 151.098C43.017 151.795 42.4054 152.309 41.7301 152.64C41.0495 152.972 40.3602 153.107 39.6623 153.045C38.9589 152.983 38.2977 152.709 37.6785 152.222C37.1962 151.842 36.8318 151.411 36.5853 150.928C36.3388 150.445 36.2185 149.945 36.2244 149.429C36.2302 148.914 36.372 148.418 36.6497 147.942L37.7036 148.771C37.5381 149.147 37.4989 149.565 37.586 150.024C37.6679 150.483 37.941 150.896 38.4054 151.261C38.8162 151.584 39.2608 151.76 39.739 151.79C40.2119 151.819 40.6869 151.709 41.1641 151.458C41.6359 151.207 42.0756 150.823 42.4831 150.305C42.9 149.775 43.1797 149.248 43.3221 148.724C43.4616 148.197 43.4635 147.705 43.3278 147.246C43.1892 146.785 42.9115 146.391 42.4947 146.063C42.2208 145.848 41.9348 145.7 41.6365 145.619C41.3383 145.539 41.0415 145.527 40.7462 145.584C40.4509 145.641 40.1721 145.768 39.9099 145.967L38.856 145.138C39.2341 144.78 39.6684 144.531 40.1588 144.392C40.644 144.253 41.1535 144.239 41.6874 144.351C42.2161 144.463 42.7334 144.718 43.2395 145.116Z" fill="white"/>
<path d="M33.0542 140.741L31.8404 141.873L31.6572 141.671L26.2134 141.453L25.099 140.224L30.8791 140.474L30.9554 140.558L33.0542 140.741ZM36.251 139.53L27.6307 147.346L26.73 146.353L35.3502 138.537L36.251 139.53ZM32.526 135.422L31.617 140.848L30.2855 140.767L31.381 134.159L32.526 135.422Z" fill="white"/>
<path d="M13.1597 128.388L20.4835 121.023L20.4243 120.9L10.1004 122.042L9.45898 120.711L21.7964 119.507L22.428 120.817L13.8012 129.719L13.1597 128.388Z" fill="white"/>
<path d="M18.1339 110.832L9.79886 113.419L9.40136 112.138L17.7364 109.551L18.1339 110.832ZM8.20758 113.199C8.28506 113.448 8.26686 113.69 8.15297 113.924C8.03797 114.154 7.86108 114.306 7.62232 114.38C7.38355 114.454 7.15165 114.429 6.9266 114.304C6.70043 114.176 6.5486 113.987 6.47112 113.738C6.39364 113.488 6.41241 113.248 6.52741 113.018C6.6413 112.785 6.81762 112.631 7.05638 112.557C7.29515 112.482 7.52761 112.509 7.75379 112.638C7.97884 112.762 8.1301 112.949 8.20758 113.199Z" fill="white"/>
<path d="M15.5904 100.333C15.7298 101.162 15.6671 101.908 15.4021 102.571C15.1328 103.231 14.6948 103.779 14.0883 104.215C13.4774 104.648 12.7312 104.939 11.8496 105.087C10.968 105.235 10.1641 105.205 9.43767 104.997C8.70692 104.786 8.10423 104.422 7.6296 103.907C7.15061 103.388 6.8458 102.74 6.71517 101.963C6.63981 101.515 6.6401 101.06 6.71604 100.597C6.79197 100.135 6.96789 99.6966 7.24379 99.2815C7.51596 98.867 7.9087 98.5071 8.42201 98.2019C8.93532 97.8966 9.59354 97.6765 10.3967 97.5415L10.957 97.4473L12.0724 104.081L10.9293 104.274L10.04 98.9842C9.55442 99.0658 9.13743 99.2358 8.78907 99.4941C8.44009 99.7487 8.18523 100.072 8.0245 100.464C7.86314 100.852 7.82266 101.285 7.90305 101.763C7.9916 102.29 8.19896 102.724 8.52513 103.065C8.84693 103.402 9.23243 103.639 9.6816 103.775C10.1308 103.91 10.5926 103.938 11.067 103.859L11.829 103.731C12.479 103.621 13.0111 103.417 13.4254 103.116C13.8354 102.813 14.1241 102.44 14.2916 101.997C14.4554 101.555 14.4923 101.066 14.4025 100.532C14.3441 100.185 14.2428 99.8793 14.0986 99.6155C13.95 99.3485 13.7595 99.129 13.5269 98.9568C13.2907 98.7853 13.0137 98.6686 12.696 98.6068L12.8398 97.269C13.2958 97.3306 13.7148 97.4925 14.0969 97.7548C14.4752 98.0177 14.7952 98.3672 15.0567 98.8033C15.3146 99.2401 15.4924 99.7499 15.5904 100.333Z" fill="white"/>
<path d="M14.0934 89.5718L5.28721 91.9567L5.33128 90.5483L12.0688 88.8718L12.0717 88.7809L5.45142 86.7092L5.49621 85.2781L12.2096 83.6464L12.2125 83.5555L5.61564 81.4618L5.65971 80.0534L14.2995 82.9842L14.2583 84.3017L7.49733 86.0001L7.49307 86.1364L14.1346 88.2543L14.0934 89.5718Z" fill="white"/>
<path d="M16.723 67.2983L5.76767 63.3759L7.09303 59.6742C7.40075 58.8147 7.80741 58.1677 8.31303 57.7332C8.81636 57.2938 9.37738 57.036 9.99609 56.9598C10.6148 56.8836 11.2469 56.9611 11.8924 57.1922C12.5379 57.4233 13.0773 57.7653 13.5106 58.2181C13.9452 58.6674 14.2217 59.2211 14.3402 59.8791C14.4551 60.5358 14.3599 61.2903 14.0548 62.1426L13.1048 64.7959L11.9279 64.3745L12.8626 61.7641C13.0733 61.1756 13.1408 60.6667 13.0652 60.2373C12.9896 59.8079 12.8076 59.4511 12.5192 59.1667C12.2284 58.8776 11.8637 58.6544 11.4251 58.4974C10.9864 58.3403 10.5648 58.2819 10.1601 58.3221C9.75674 58.3587 9.3925 58.522 9.0674 58.812C8.73873 59.1007 8.46778 59.5428 8.25455 60.1383L7.4195 62.4706L17.198 65.9717L16.723 67.2983Z" fill="#555555"/>
<path d="M23.4247 51.8628C23.0291 52.5442 22.5199 53.0479 21.897 53.3739C21.276 53.6967 20.5902 53.8329 19.8398 53.7827C19.0912 53.7291 18.3271 53.476 17.5475 53.0234C16.7613 52.567 16.1577 52.026 15.7368 51.4006C15.3178 50.7719 15.0945 50.1079 15.0669 49.4086C15.0411 48.706 15.2261 48.014 15.6217 47.3326C16.0172 46.6513 16.5255 46.1492 17.1465 45.8265C17.7694 45.5004 18.4568 45.3652 19.2086 45.4206C19.9624 45.4727 20.7323 45.727 21.5185 46.1835C22.2982 46.6361 22.8959 47.1758 23.3116 47.8026C23.7292 48.4262 23.9509 49.0892 23.9766 49.7918C24.0042 50.4911 23.8203 51.1815 23.4247 51.8628ZM22.383 51.258C22.6835 50.7405 22.798 50.2376 22.7267 49.7494C22.6553 49.2612 22.45 48.8113 22.1108 48.3998C21.7716 47.9882 21.3497 47.636 20.8453 47.3431C20.3408 47.0502 19.8241 46.8576 19.2952 46.7652C18.7664 46.6727 18.2706 46.7156 17.808 46.8938C17.3454 47.072 16.9639 47.4198 16.6634 47.9374C16.3629 48.455 16.25 48.9588 16.3246 49.4489C16.3992 49.939 16.6078 50.3908 16.9503 50.8042C17.2928 51.2177 17.7163 51.5709 18.2207 51.8638C18.7252 52.1566 19.2402 52.3484 19.7658 52.4389C20.2914 52.5294 20.7839 52.4846 21.2432 52.3045C21.7026 52.1245 22.0825 51.7756 22.383 51.258Z" fill="#555555"/>
<path d="M28.2626 43.8468L21.4755 38.3603L22.2899 37.3529L23.3151 38.1816L23.3722 38.1109C23.1364 37.7157 23.0449 37.2715 23.0977 36.7784C23.1505 36.2853 23.3412 35.8355 23.6698 35.429C23.7317 35.3524 23.8106 35.2579 23.9064 35.1454C24.0022 35.0329 24.0769 34.9495 24.1304 34.8954L25.1909 35.7527C25.1535 35.7809 25.0747 35.8512 24.9547 35.9635C24.834 36.0706 24.7178 36.1933 24.6058 36.3318C24.3391 36.6617 24.1702 37.0122 24.0991 37.3834C24.0275 37.7492 24.0517 38.1049 24.1718 38.4504C24.2913 38.7905 24.5043 39.0845 24.8106 39.3321L29.1055 42.804L28.2626 43.8468Z" fill="#555555"/>
<path d="M31.0521 27.6634L31.8439 28.4785L28.5999 31.63L27.8081 30.8149L31.0521 27.6634ZM27.2966 28.3966L28.2584 27.4623L34.0545 33.4286C34.3185 33.7003 34.5558 33.8658 34.7666 33.9251C34.9774 33.979 35.1677 33.9684 35.3376 33.8932C35.5075 33.8126 35.6631 33.7037 35.8044 33.5664C35.9104 33.4635 35.992 33.3736 36.0494 33.2968C36.1041 33.2172 36.1479 33.1535 36.1807 33.1058L37.2157 33.7797C37.1742 33.8675 37.107 33.9804 37.0139 34.1183C36.9235 34.259 36.7886 34.4164 36.6093 34.5906C36.3376 34.8546 36.0146 35.0548 35.6403 35.1914C35.2687 35.3253 34.8811 35.3559 34.4777 35.283C34.077 35.2076 33.6998 34.9878 33.3461 34.6238L27.2966 28.3966Z" fill="#555555"/>
<path d="M38.06 21.7436L38.7536 22.6437L35.0272 25.5154L34.3335 24.6153L38.06 21.7436ZM40.7768 30.668L34.7144 22.801C34.4092 22.405 34.2479 22.0033 34.2304 21.5959C34.213 21.1885 34.3019 20.8044 34.4972 20.4434C34.6925 20.0825 34.9552 19.7749 35.2852 19.5206C35.5463 19.3194 35.7755 19.1763 35.9729 19.0911C36.1702 19.0059 36.3233 18.9501 36.4321 18.9237L36.8336 20.0777C36.7657 20.1013 36.6733 20.1366 36.5565 20.1836C36.4427 20.2282 36.3093 20.3095 36.1562 20.4274C35.8052 20.698 35.6199 20.9818 35.6003 21.2791C35.5837 21.574 35.7072 21.8925 35.9707 22.2346L41.8389 29.8495L40.7768 30.668Z" fill="#555555"/>
<path d="M50.4771 24.1451C49.7889 24.5287 49.0938 24.7014 48.3917 24.6634C47.693 24.6234 47.034 24.3901 46.4146 23.9635C45.7985 23.5349 45.271 22.9269 44.8322 22.1394C44.3896 21.3453 44.1472 20.5719 44.105 19.8193C44.0661 19.0647 44.2135 18.3798 44.5471 17.7646C44.884 17.1475 45.3966 16.6472 46.0848 16.2637C46.773 15.8801 47.4665 15.7083 48.1652 15.7482C48.8672 15.7863 49.5272 16.0213 50.1451 16.4531C50.7664 16.8831 51.2983 17.4951 51.7408 18.2892C52.1797 19.0767 52.4176 19.8461 52.4547 20.5973C52.4951 21.3467 52.3468 22.0299 52.0099 22.647C51.6763 23.2622 51.1653 23.7616 50.4771 24.1451ZM49.8907 23.093C50.4135 22.8016 50.769 22.4279 50.9571 21.9718C51.1452 21.5157 51.1987 21.0241 51.1174 20.497C51.0361 19.9699 50.8535 19.4516 50.5695 18.942C50.2856 18.4325 49.9399 18.0028 49.5325 17.6531C49.1251 17.3034 48.6771 17.0869 48.1884 17.0037C47.6997 16.9205 47.194 17.0245 46.6712 17.3159C46.1484 17.6072 45.7939 17.9826 45.6076 18.442C45.4213 18.9014 45.3697 19.3963 45.4528 19.9267C45.5359 20.4571 45.7195 20.9771 46.0035 21.4867C46.2874 21.9962 46.6322 22.4242 47.0377 22.7706C47.4432 23.117 47.8894 23.3302 48.3763 23.4101C48.8631 23.49 49.368 23.3843 49.8907 23.093Z" fill="#555555"/>
<path d="M55.7672 8.44725L59.9795 19.2944L58.7295 19.7798L54.5172 8.93265L55.7672 8.44725Z" fill="#555555"/>
<path d="M65.3639 17.342L63.012 8.93759L64.3033 8.57622L66.6552 16.9806L65.3639 17.342ZM63.2766 7.35311C63.0249 7.42355 62.7839 7.39856 62.5535 7.27816C62.3268 7.15673 62.1798 6.97565 62.1124 6.7349C62.045 6.49414 62.0767 6.26304 62.2075 6.04157C62.3419 5.81909 62.5349 5.67263 62.7866 5.6022C63.0383 5.53176 63.2775 5.55726 63.5042 5.67868C63.7346 5.79908 63.8835 5.97966 63.9508 6.22041C64.0182 6.46116 63.9847 6.69278 63.8503 6.91526C63.7195 7.13673 63.5283 7.28268 63.2766 7.35311Z" fill="#555555"/>
<path d="M75.7993 15.1066C75.0186 15.2127 74.3084 15.12 73.6686 14.8285C73.0326 14.5365 72.504 14.0789 72.0829 13.4557C71.6656 12.832 71.3962 12.0735 71.2748 11.1802C71.1524 10.2794 71.2088 9.47087 71.444 8.75464C71.683 8.03789 72.07 7.45394 72.605 7.00277C73.1438 6.5511 73.8035 6.27221 74.5842 6.1661C75.3649 6.05999 76.0733 6.15294 76.7093 6.44494C77.3491 6.73643 77.8779 7.19591 78.2958 7.82339C78.7174 8.45035 78.9894 9.21423 79.1118 10.115C79.2332 11.0083 79.1742 11.8115 78.9347 12.5245C78.699 13.237 78.3117 13.819 77.7729 14.2707C77.2379 14.7219 76.58 15.0005 75.7993 15.1066ZM75.6371 13.9131C76.2302 13.8325 76.6974 13.6141 77.039 13.2581C77.3805 12.902 77.6095 12.4638 77.7261 11.9433C77.8427 11.4229 77.8617 10.8736 77.7831 10.2956C77.7046 9.71761 77.5394 9.1915 77.2876 8.7173C77.0359 8.2431 76.6977 7.87812 76.273 7.62238C75.8483 7.36664 75.3395 7.27907 74.7464 7.35967C74.1534 7.44027 73.6864 7.66048 73.3454 8.02029C73.0043 8.3801 72.7758 8.8221 72.6597 9.34629C72.5437 9.87049 72.5249 10.4216 72.6035 10.9996C72.682 11.5776 72.8469 12.1019 73.0982 12.5723C73.3495 13.0428 73.6872 13.404 74.1113 13.656C74.5355 13.908 75.0441 13.9937 75.6371 13.9131Z" fill="#555555"/>
</svg>
